<svg width="30" height="15" viewBox="0 0 30 15" fill="none" xmlns="http://www.w3.org/2000/svg">
<path d="M5.76758 10.1074H5.88867L8.54492 0H11.4209L14.0703 10.1279H14.1982L16.6055 0H22.8096C24.2725 0 25.5321 0.291724 26.5879 0.874023C27.6438 1.45167 28.4562 2.28291 29.0244 3.36719C29.5972 4.45137 29.8838 5.74857 29.8838 7.25879C29.8838 8.77385 29.5973 10.0761 29.0244 11.165C28.4563 12.2539 27.6394 13.0895 26.5742 13.6719C25.5137 14.2542 24.2447 14.5458 22.7676 14.5459H17.6113V8.22461L15.8027 14.5459H12.8057L10.0361 5.03613H9.92285L7.15918 14.5459H4.16211L0 0H3.36035L5.76758 10.1074ZM20.6865 11.9111H22.6396C23.5486 11.9111 24.3134 11.7497 24.9336 11.4277C25.5585 11.101 26.0274 10.5968 26.3398 9.91504C26.657 9.22852 26.8154 8.34295 26.8154 7.25879C26.8154 6.1841 26.657 5.30579 26.3398 4.62402C26.0273 3.94221 25.5607 3.44013 24.9404 3.11816C24.3202 2.79624 23.5555 2.63575 22.6465 2.63574H20.6865V11.9111Z" fill="#1664EA"/>
</svg>
